<svg width="40" height="86" viewBox="0 0 40 86" fill="none" xmlns="http://www.w3.org/2000/svg">
<rect width="40" height="40" rx="20" fill="#EF302B"/>
<path d="M21.7241 18.016C22.9721 18.24 23.9721 18.808 24.7241 19.72C25.4921 20.632 25.8761 21.72 25.8761 22.984C25.8761 24.52 25.3481 25.792 24.2921 26.8C23.2521 27.792 21.9481 28.288 20.3801 28.288C18.8601 28.288 17.5961 27.816 16.5881 26.872C15.5961 25.912 15.0681 24.68 15.0041 23.176H17.5961C17.6441 23.976 17.9241 24.624 18.4361 25.12C18.9481 25.6 19.5961 25.84 20.3801 25.84C21.2121 25.84 21.9001 25.568 22.4441 25.024C22.9881 24.464 23.2601 23.76 23.2601 22.912C23.2601 22.496 23.1801 22.112 23.0201 21.76C22.8601 21.392 22.6441 21.08 22.3721 20.824C22.1001 20.568 21.7721 20.376 21.3881 20.248C21.0041 20.104 20.5881 20.032 20.1401 20.032H18.1241V19.528L21.4361 14.392H15.4841V12.04H25.2521V12.568L21.7241 18.016Z" fill="white"/>
<circle cx="20" cy="79" r="6" fill="white" stroke="#EF302B" stroke-width="2"/>
<path d="M20 72V40" stroke="#EF302B" stroke-width="2"/>
</svg>
