<svg width="40" height="86" viewBox="0 0 40 86" fill="none" xmlns="http://www.w3.org/2000/svg">
<rect width="40" height="40" rx="20" fill="#1E4391"/>
<path d="M19.8861 25.552H25.8381V28H14.9181V27.304C17.3021 24.696 19.0221 22.752 20.0781 21.472C21.1501 20.176 21.8621 19.192 22.2141 18.52C22.5661 17.848 22.7421 17.184 22.7421 16.528C22.7421 16.064 22.6381 15.656 22.4301 15.304C22.2381 14.952 21.9581 14.68 21.5901 14.488C21.2381 14.28 20.8221 14.176 20.3421 14.176C19.5901 14.176 18.9821 14.4 18.5181 14.848C18.0701 15.28 17.8461 15.848 17.8461 16.552V16.912H15.2541V16.552C15.2541 15.112 15.7181 13.952 16.6461 13.072C17.5741 12.176 18.7981 11.728 20.3181 11.728C21.8061 11.728 23.0141 12.176 23.9421 13.072C24.8861 13.968 25.3581 15.12 25.3581 16.528C25.3581 17.264 25.2221 17.976 24.9501 18.664C24.6941 19.352 24.1661 20.24 23.3661 21.328C22.5821 22.4 21.4221 23.808 19.8861 25.552Z" fill="white"/>
<circle cx="20" cy="79" r="6" fill="white" stroke="#1E4391" stroke-width="2"/>
<path d="M20 72V40" stroke="#1E4391" stroke-width="2"/>
</svg>
